<?xml version="1.0" standalone="no"?>
<!DOCTYPE svg PUBLIC "-//W3C//DTD SVG 20010904//EN"
 "http://www.w3.org/TR/2001/REC-SVG-20010904/DTD/svg10.dtd">
<svg version="1.0" xmlns="http://www.w3.org/2000/svg"
 width="400.000000pt" height="400.000000pt" viewBox="0 0 400.000000 400.000000"
 preserveAspectRatio="xMidYMid meet">

<g transform="translate(0.000000,400.000000) scale(0.100000,-0.100000)"
fill="#000000" stroke="none">
<path d="M1860 3624 c-14 -2 -68 -11 -120 -20 -106 -17 -285 -74 -402 -128
-63 -28 -77 -39 -72 -53 4 -14 4 -15 -4 -4 -11 15 -21 11 -111 -46 -42 -27
-51 -37 -40 -44 10 -7 7 -8 -11 -7 -20 2 -24 -1 -22 -17 2 -15 1 -17 -7 -6 -7
11 -24 1 -82 -47 -101 -83 -183 -168 -175 -181 4 -6 13 -8 19 -4 7 4 6 0 -2
-10 -14 -18 -26 -23 -16 -8 3 5 1 12 -4 15 -23 15 -160 -181 -240 -342 -61
-121 -111 -266 -143 -412 -19 -91 -23 -134 -23 -320 0 -188 3 -229 24 -324 29
-140 80 -284 142 -411 56 -113 160 -271 177 -268 6 2 9 -3 6 -10 -2 -7 40 -61
97 -120 76 -80 106 -106 119 -102 10 3 21 1 25 -4 4 -7 -1 -8 -12 -4 -14 5
-13 1 6 -20 24 -26 49 -38 36 -17 -4 7 2 7 19 0 19 -7 26 -6 29 6 3 9 4 8 3
-3 -1 -13 -9 -17 -26 -15 -24 3 -23 1 10 -27 19 -17 40 -30 45 -31 6 0 -1 9
-15 20 l-25 20 23 0 c13 0 21 -4 17 -9 -3 -5 -1 -12 5 -16 6 -4 8 -10 5 -15
-7 -11 140 -100 239 -145 102 -46 236 -90 359 -117 89 -20 130 -23 332 -23
217 1 237 2 350 29 140 33 292 88 404 146 81 42 133 77 99 66 -10 -3 -18 -2
-19 2 0 4 -2 15 -4 25 -2 9 1 17 6 17 5 0 9 -6 9 -14 0 -16 27 -29 41 -20 5 3
7 9 4 14 -3 5 0 12 6 16 8 5 9 3 4 -6 -5 -8 -3 -11 6 -8 8 3 14 17 13 31 0 15
5 27 12 27 20 0 25 -17 8 -24 -9 -4 -14 -9 -11 -13 15 -15 217 162 319 279 42
49 48 61 37 74 -10 12 -14 12 -20 2 -6 -9 -9 -9 -9 -1 0 21 21 26 34 7 12 -16
18 -10 65 59 57 85 72 115 51 102 -9 -5 -11 -4 -6 4 4 6 12 9 17 5 13 -7 100
177 139 293 56 170 71 261 77 473 5 171 2 211 -17 324 -12 72 -38 180 -58 240
-38 118 -150 351 -169 351 -6 0 -15 4 -20 9 -5 5 -2 6 6 1 9 -5 12 -3 9 6 -3
8 -17 14 -33 14 -16 1 -30 7 -33 15 -3 13 -2 13 7 0 9 -13 11 -13 11 3 0 9 -5
17 -12 17 -6 0 -8 3 -4 7 4 4 16 -3 26 -17 11 -14 20 -20 20 -15 0 35 -318
385 -350 385 -6 0 -8 -6 -4 -12 4 -8 3 -10 -2 -5 -5 5 -9 14 -9 20 0 20 -144
113 -270 176 -239 119 -415 161 -695 166 -107 2 -206 2 -220 -1z m113 -14
c-14 -6 -32 -6 -45 0 -19 7 -15 9 22 9 37 0 41 -2 23 -9z m204 3 c-8 -7 -168
-6 -175 2 -3 3 37 5 88 5 51 0 90 -3 87 -7z m70 -9 c-3 -3 -12 -4 -19 -1 -8 3
-5 6 6 6 11 1 17 -2 13 -5z m-467 -19 c-33 -19 -51 -19 -44 0 4 9 19 15 38 15
l31 -1 -25 -14z m-62 0 c-11 -11 -68 -23 -68 -15 0 5 12 11 28 13 15 2 31 5
36 6 5 0 7 -1 4 -4z m690 -4 c35 -1 26 -16 -12 -18 -21 -1 -36 4 -39 12 -4 8
1 12 11 10 9 -2 27 -4 40 -4z m-71 -7 c-3 -3 -12 -4 -19 -1 -8 3 -5 6 6 6 11
1 17 -2 13 -5z m-738 -18 c-11 -11 -79 -34 -79 -27 0 4 15 13 33 19 35 11 53
14 46 8z m901 0 c0 -3 -4 -8 -10 -11 -5 -3 -10 -1 -10 4 0 6 5 11 10 11 6 0
10 -2 10 -4z m20 -21 c-14 -8 -29 -14 -35 -14 -5 0 1 6 15 14 14 8 30 14 35
14 6 0 -1 -6 -15 -14z m61 -13 c-7 -2 -18 1 -23 6 -8 8 -4 9 13 5 13 -4 18 -8
10 -11z m49 -23 c0 -5 -7 -9 -15 -9 -8 0 -15 7 -15 15 0 9 6 12 15 9 8 -4 15
-10 15 -15z m-1165 1 c13 -6 15 -9 5 -9 -8 0 -22 4 -30 9 -18 12 -2 12 25 0z
m-25 -66 l0 -54 -57 -2 -58 -1 60 -7 60 -7 -63 -1 -63 -2 2 50 c2 28 6 50 11
50 4 0 8 -4 8 -8 0 -4 14 -9 30 -10 22 -2 30 2 30 13 0 9 5 13 10 10 6 -3 10
1 10 9 0 10 -6 13 -17 10 -14 -5 -15 -4 -4 4 28 20 41 2 41 -54z m1240 56 c12
-8 9 -9 -12 -8 -15 1 -24 6 -22 10 7 10 16 10 34 -2z m70 -36 c0 -2 -9 0 -20
6 -11 6 -20 13 -20 16 0 2 9 0 20 -6 11 -6 20 -13 20 -16z m135 -67 c22 -13
41 -31 42 -42 2 -16 1 -16 -7 3 -5 13 -14 20 -20 17 -5 -3 -10 -1 -10 5 0 6
-4 9 -9 6 -5 -3 -20 3 -32 14 -32 26 -13 25 36 -3z m-1679 -2 c-8 -8 -18 -15
-22 -15 -3 0 -1 7 6 15 7 8 17 15 22 15 5 0 3 -7 -6 -15z m1795 -75 c13 -10
18 -19 12 -20 -7 0 -13 5 -13 10 0 6 -8 10 -17 10 -10 0 -25 5 -33 10 -12 8
-11 10 6 10 12 0 32 -9 45 -20z m-1964 -62 c2 -17 0 -19 -7 -9 -7 12 -15 9
-44 -15 -20 -17 -34 -36 -32 -46 3 -11 -1 -15 -10 -11 -8 3 -22 0 -32 -7 -9
-7 12 15 48 49 36 33 67 61 70 61 3 0 7 -10 7 -22z m2067 -17 c12 -13 14 -21
6 -26 -6 -4 -9 -1 -8 7 2 7 -2 12 -9 11 -6 -1 -14 4 -17 12 -8 21 8 19 28 -4z
m40 -47 c3 -8 2 -12 -4 -9 -6 3 -10 10 -10 16 0 14 7 11 14 -7z m54 -45 c14 0
13 -2 -3 -8 -27 -11 -34 -5 -27 22 5 18 7 19 10 5 2 -10 11 -18 20 -19z
m-2323 -23 c-9 -13 -24 -27 -33 -31 -10 -4 -5 6 12 24 36 37 42 39 21 7z
m2345 -6 c0 -5 -2 -10 -4 -10 -3 0 -8 5 -11 10 -3 6 -1 10 4 10 6 0 11 -4 11
-10z m32 -54 c-3 -5 2 -7 11 -3 8 3 21 -1 27 -9 15 -17 10 -17 -25 -4 -14 5
-24 14 -20 19 3 5 1 12 -5 16 -5 3 -10 11 -10 18 0 6 6 2 14 -8 8 -11 12 -24
8 -29z m-2452 -31 c0 -8 -6 -15 -13 -15 -8 0 -19 -11 -25 -25 -6 -14 -17 -25
-23 -25 -12 0 -2 17 36 57 24 27 25 27 25 8z m2540 -45 c33 -41 33 -47 -1 -29
-11 5 -17 14 -13 20 7 12 -15 41 -27 33 -5 -3 -9 0 -9 5 0 21 19 10 50 -29z
m-2545 -9 c-3 -6 -11 -11 -17 -11 -6 0 -6 6 2 15 14 17 26 13 15 -4z m-79 -66
c-7 -18 -26 -20 -26 -2 0 18 24 41 28 27 2 -6 1 -17 -2 -25z m-36 -52 c0 -20
-3 -24 -11 -16 -7 7 -9 19 -6 27 10 24 17 19 17 -11z m1365 17 c5 -8 -41 -11
-174 -9 -100 1 -184 -1 -188 -4 -3 -4 -16 -7 -27 -7 -16 0 -18 2 -7 9 11 7 10
10 -5 13 -10 1 75 4 188 6 146 2 208 0 213 -8z m110 -20 c14 -7 8 -8 -20 -3
-22 3 -42 7 -44 9 -9 8 45 2 64 -6z m-1435 -20 c0 -5 -4 -10 -10 -10 -5 0 -10
5 -10 10 0 6 5 10 10 10 6 0 10 -4 10 -10z m818 -4 c9 3 -5 -6 -32 -20 -27
-14 -51 -24 -53 -22 -2 2 10 10 26 17 17 8 31 21 32 29 0 9 2 11 5 3 3 -7 13
-10 22 -7z m636 -2 c122 -31 243 -115 310 -216 27 -39 35 -45 46 -35 12 10 12
9 3 -3 -9 -11 -6 -32 12 -85 13 -38 27 -102 31 -143 5 -63 11 -77 36 -102 27
-28 35 -30 104 -30 75 0 117 -13 143 -44 7 -8 21 -13 31 -11 11 2 22 0 25 -5
3 -5 -4 -7 -16 -5 -17 3 -19 1 -13 -13 13 -27 17 -417 5 -502 -12 -94 -41
-173 -87 -241 -39 -58 -41 -64 -17 -54 11 4 7 -5 -11 -24 -32 -33 -50 -43 -23
-13 31 34 17 36 -18 2 -19 -18 -31 -38 -28 -43 3 -6 2 -7 -4 -4 -6 4 -19 0
-29 -8 -12 -9 -14 -14 -6 -15 7 0 10 -5 6 -11 -5 -8 -9 -8 -14 1 -4 7 -13 9
-19 6 -6 -4 -9 -11 -6 -16 3 -5 0 -12 -6 -16 -8 -5 -9 -3 -4 6 6 9 4 12 -6 7
-166 -72 -199 -76 -579 -76 -309 -1 -394 6 -487 39 -31 11 -60 17 -66 13 -6
-3 -7 -1 -4 4 8 12 -20 26 -34 17 -5 -3 -8 0 -7 7 2 6 -3 14 -11 17 -9 3 -11
0 -6 -8 5 -9 4 -11 -4 -6 -6 4 -9 11 -6 16 3 4 -17 25 -43 46 -26 21 -41 31
-35 23 10 -13 10 -16 -1 -16 -8 0 -13 8 -11 18 5 26 -32 69 -53 63 -11 -4 -13
-3 -5 3 8 6 3 27 -22 76 -54 112 -57 142 -53 577 3 381 4 397 26 455 60 160
183 280 346 336 80 28 84 29 315 29 181 0 247 -4 295 -16z m89 -4 l21 -20 -32
11 c-18 6 -32 15 -32 20 0 15 20 10 43 -11z m-1626 -18 c0 -10 -6 -19 -13 -19
-9 0 -9 5 -1 19 7 10 13 18 14 18 1 0 1 -8 0 -18z m2828 -30 c-2 -7 -1 -11 3
-8 5 3 16 -10 25 -29 10 -21 12 -37 7 -40 -6 -3 -10 3 -10 14 0 12 -6 20 -12
19 -7 -2 -12 3 -10 11 2 8 -3 11 -11 8 -10 -4 -13 5 -13 34 1 34 3 37 14 22 7
-10 10 -23 7 -31z m-1145 17 c0 -4 7 -10 16 -13 11 -4 15 -2 11 7 -3 8 5 14
24 15 23 2 29 -2 29 -18 0 -12 -7 -20 -17 -21 -15 0 -15 -2 -3 -7 8 -4 16 -14
18 -22 3 -11 -3 -9 -20 6 -13 12 -38 29 -55 38 -37 18 -40 23 -18 23 8 0 15
-4 15 -8z m-920 -36 c0 -2 -21 -25 -46 -51 -25 -26 -59 -66 -75 -89 -17 -24
-33 -43 -36 -43 -3 0 0 6 6 14 9 11 9 15 -1 19 -9 4 -8 6 3 6 9 1 20 15 25 34
6 19 16 32 27 32 9 0 22 6 29 13 6 6 8 12 3 12 -5 0 0 7 12 15 12 9 20 22 17
30 -4 9 1 13 15 12 12 -1 21 -3 21 -4z m-809 -30 c-12 -20 -14 -14 -5 12 4 9
9 14 11 11 3 -2 0 -13 -6 -23z m1969 -43 c0 -35 -3 -39 -22 -37 -20 2 -23 -2
-20 -27 3 -26 1 -28 -13 -16 -8 7 -13 15 -11 17 3 3 -4 15 -15 26 -14 16 -16
23 -7 29 9 5 7 8 -7 8 -11 0 -28 9 -38 20 -17 20 -16 20 58 20 l75 0 0 -40z
m-1976 -1 c-3 -5 -10 -7 -15 -3 -5 3 -7 10 -3 15 3 5 10 7 15 3 5 -3 7 -10 3
-15z m2961 -59 c13 -26 13 -29 0 -24 -8 3 -13 10 -10 14 3 5 1 11 -5 15 -5 3
-10 10 -10 16 0 17 9 9 25 -21z m-2985 -7 c0 -17 -28 -53 -41 -53 -4 0 -2 13
4 29 6 17 15 27 21 24 5 -4 7 1 3 11 -4 10 -3 15 3 11 6 -3 10 -13 10 -22z
m661 -88 c5 4 6 -1 3 -9 -9 -23 -20 -19 -21 7 0 12 1 16 4 9 3 -6 9 -10 14 -7z
m1337 -16 c-3 -8 -7 -3 -11 10 -4 17 -3 21 5 13 5 -5 8 -16 6 -23z m-2035 1
c3 -11 2 -18 -2 -16 -4 3 -13 -15 -19 -40 -7 -25 -16 -42 -21 -39 -6 3 -8 -15
-5 -43 4 -48 -15 -110 -29 -95 -10 9 -9 43 1 42 19 -3 22 3 12 21 -13 24 14
138 36 156 8 6 14 16 14 23 0 18 7 13 13 -9z m3057 -5 c0 6 5 2 11 -9 6 -10
11 -45 10 -77 0 -33 3 -57 8 -54 5 3 7 15 5 28 -2 12 2 4 10 -18 7 -22 16 -61
20 -87 l7 -46 -46 0 -45 0 0 119 c0 88 -3 119 -12 120 -10 0 -10 2 0 6 6 2 12
12 12 21 0 15 2 15 10 2 5 -8 10 -10 10 -5z m-1000 -47 c0 -15 3 -19 8 -11 5
7 8 -4 7 -26 0 -22 -2 -37 -5 -35 -10 10 -26 94 -18 94 4 0 8 -10 8 -22z
m-1400 -51 c0 -5 -4 -5 -10 -2 -5 3 -10 14 -10 23 0 15 2 15 10 2 5 -8 10 -19
10 -23z m0 -42 c0 -8 -4 -15 -10 -15 -5 0 -7 7 -4 15 4 8 8 15 10 15 2 0 4 -7
4 -15z m1430 -35 c5 0 15 7 24 15 8 8 31 15 50 15 l36 0 0 -60 0 -60 38 -2
c20 -1 45 -2 54 -1 10 0 16 -3 13 -5 -3 -3 1 -12 8 -20 10 -13 9 -14 -12 -2
-15 7 -54 12 -96 11 -59 -1 -76 2 -98 19 -30 24 -35 40 -11 40 10 0 14 -6 11
-15 -4 -8 -3 -16 2 -19 4 -3 8 13 9 35 3 43 -18 55 -37 22 -8 -14 -10 -10 -10
22 1 22 3 32 6 23 2 -10 8 -18 13 -18z m-2175 -150 c0 -22 -3 -40 -7 -40 -5 0
-8 18 -8 40 0 22 3 40 8 40 4 0 7 -18 7 -40z m3222 18 c-3 -8 -6 -5 -6 6 -1
11 2 17 5 13 3 -3 4 -12 1 -19z m-717 -79 c0 -6 -4 -7 -10 -4 -8 5 -17 -475
-11 -560 2 -16 0 -17 -8 -6 -8 12 -10 12 -14 0 -2 -8 -2 -5 1 6 3 11 6 144 7
296 0 255 1 275 18 276 9 1 17 -3 17 -8z m-2516 -109 c-4 -86 -2 -110 8 -110
9 0 10 -2 2 -8 -7 -4 -14 -18 -17 -32 -3 -14 -5 39 -5 118 0 78 4 142 8 142 5
0 6 -49 4 -110z m3243 -32 c-1 -79 -3 -124 -5 -100 -2 23 -7 40 -13 37 -5 -4
-9 5 -9 19 0 14 5 26 10 26 6 0 10 33 10 80 0 44 2 80 5 80 3 0 4 -64 2 -142z
m-7 -161 c0 -5 -4 -5 -10 -2 -5 3 -10 14 -10 23 0 15 2 15 10 2 5 -8 10 -19
10 -23z m-3211 -132 l0 -20 -8 20 c-5 11 -11 43 -14 70 l-6 50 14 -50 c8 -27
14 -59 14 -70z m3201 68 c-11 -17 -11 -17 -6 0 3 10 7 26 7 35 1 15 2 15 6 0
2 -10 -1 -25 -7 -35z m-3 -55 c-3 -8 -6 -5 -6 6 -1 11 2 17 5 13 3 -3 4 -12 1
-19z m-2476 -45 c-12 -20 -14 -14 -5 12 4 9 9 14 11 11 3 -2 0 -13 -6 -23z
m-700 -20 c5 -37 3 -71 -4 -66 -5 3 -6 11 -3 19 3 7 1 16 -4 19 -13 8 -13 35
0 35 6 0 10 -3 11 -7z m707 -35 c-3 -20 0 -38 8 -46 22 -21 16 -35 -6 -14 -15
14 -18 26 -13 55 3 20 8 37 10 37 3 0 3 -14 1 -32z m2449 0 c-3 -8 -6 -5 -6 6
-1 11 2 17 5 13 3 -3 4 -12 1 -19z m-7 -28 c0 -5 -2 -10 -4 -10 -3 0 -8 5 -11
10 -3 6 -1 10 4 10 6 0 11 -4 11 -10z m-3104 -97 c1 -56 0 -57 -12 -28 -6 17
-10 34 -7 39 3 4 -1 12 -8 17 -7 4 -10 11 -6 16 5 4 12 1 17 -7 8 -13 10 -12
10 3 0 9 1 17 3 17 1 0 3 -26 3 -57z m2408 -2 c-6 -27 -11 -32 -29 -29 -21 4
-22 2 -17 -38 4 -42 4 -43 -27 -42 -42 1 -44 8 -17 49 13 19 26 47 30 63 5 21
10 26 16 17 6 -11 11 -8 20 9 16 31 32 12 24 -29z m676 21 c0 -5 -9 -19 -20
-32 -25 -28 -26 -18 -2 15 19 27 22 29 22 17z m-2380 -22 c0 -5 -4 -10 -10
-10 -5 0 -10 5 -10 10 0 6 5 10 10 10 6 0 10 -4 10 -10z m30 -93 c-10 -9 -11
-9 -6 1 4 7 1 24 -8 37 -9 13 -16 28 -16 32 0 4 10 -7 22 -25 17 -27 18 -36 8
-45z m-702 3 c-7 -10 -14 -18 -15 -16 -6 6 9 36 18 36 5 0 4 -9 -3 -20z m3012
14 c0 -17 -25 -62 -32 -58 -6 4 -5 10 3 15 8 5 9 9 4 9 -6 0 -11 9 -11 19 0
13 7 19 18 18 10 -1 18 -2 18 -3z m-3000 -50 c0 -8 -5 -12 -10 -9 -6 4 -8 11
-5 16 9 14 15 11 15 -7z m24 -65 c12 -23 12 -28 2 -20 -12 11 -29 51 -21 51 2
0 10 -14 19 -31z m2923 -14 c-7 -13 -14 -20 -15 -14 -2 5 2 16 8 24 18 21 20
18 7 -10z m-2121 -17 c12 -14 13 -18 3 -10 -9 6 -19 9 -22 5 -4 -3 -7 1 -7 10
0 22 3 21 26 -5z m-755 -52 c5 3 9 0 9 -6 0 -15 -23 -7 -26 8 -1 7 0 8 3 2 2
-5 9 -8 14 -4z m1970 -29 c-10 -9 -11 -8 -5 6 3 10 9 15 12 12 3 -3 0 -11 -7
-18z m44 4 c3 -5 2 -12 -3 -15 -5 -3 -9 1 -9 9 0 17 3 19 12 6z m-100 -22
c-22 -10 -51 -18 -65 -18 -16 0 -6 7 30 19 71 23 85 23 35 -1z m-1891 -5 c3
-8 2 -12 -4 -9 -6 3 -10 10 -10 16 0 14 7 11 14 -7z m2775 -15 c-13 -25 -18
-24 -12 4 4 18 3 19 -6 7 -6 -8 -11 -10 -11 -4 0 16 10 23 26 17 10 -4 11 -10
3 -24z m-1823 -1 c-19 -11 -50 -3 -42 11 3 4 17 6 32 3 23 -4 24 -6 10 -14z
m-919 -34 c-4 -15 -5 -14 -6 4 -1 15 -5 21 -13 16 -7 -5 -8 -3 -3 5 10 18 28
-2 22 -25z m986 29 c-7 -2 -21 -2 -30 0 -10 3 -4 5 12 5 17 0 24 -2 18 -5z
m764 1 c-3 -3 -12 -4 -19 -1 -8 3 -5 6 6 6 11 1 17 -2 13 -5z m948 -63 c-3 -6
-11 -11 -16 -11 -5 0 -4 6 3 14 14 16 24 13 13 -3z m-2670 -1 c3 -5 1 -10 -4
-10 -6 0 -11 5 -11 10 0 6 2 10 4 10 3 0 8 -4 11 -10z m44 -54 c0 -6 -3 -5 -6
2 -2 6 -11 12 -19 12 -15 0 -19 12 -7 24 8 8 33 -22 32 -38z m2593 12 c-7 -7
-12 -8 -12 -2 0 14 12 26 19 19 2 -3 -1 -11 -7 -17z m-2559 -58 c3 -11 1 -18
-4 -14 -5 3 -9 12 -9 20 0 20 7 17 13 -6z m2502 -10 c3 -5 1 -10 -4 -10 -6 0
-11 5 -11 10 0 6 2 10 4 10 3 0 8 -4 11 -10z m-2435 -20 c0 -5 -2 -10 -4 -10
-3 0 -8 5 -11 10 -3 6 -1 10 4 10 6 0 11 -4 11 -10z m14 -65 c-5 -11 -2 -13
12 -8 12 4 15 3 10 -5 -11 -18 -24 -15 -36 8 -8 16 -8 20 4 20 10 0 13 -6 10
-15z m2356 11 c0 -2 -7 -6 -15 -10 -8 -3 -15 -1 -15 4 0 6 7 10 15 10 8 0 15
-2 15 -4z m-2316 -57 c-3 -5 -10 -7 -15 -3 -5 3 -7 10 -3 15 3 5 10 7 15 3 5
-3 7 -10 3 -15z m2270 12 c3 -5 -1 -11 -9 -14 -9 -4 -12 -1 -8 9 6 16 10 17
17 5z m-54 -49 c0 -15 -2 -15 -10 -2 -13 20 -13 33 0 25 6 -3 10 -14 10 -23z
m-2173 -4 c-3 -8 -6 -5 -6 6 -1 11 2 17 5 13 3 -3 4 -12 1 -19z m2153 -23 c0
-1 -9 -10 -19 -19 -19 -17 -19 -17 -15 1 3 11 12 20 20 20 8 0 14 -1 14 -2z
m-130 -45 c0 -5 -4 -10 -10 -10 -5 0 -10 5 -10 10 0 6 5 10 10 10 6 0 10 -4
10 -10z m48 -17 c-12 -15 -22 -18 -14 -4 4 5 0 11 -6 14 -7 3 -3 4 9 4 17 -1
19 -4 11 -14z m-1828 -64 c0 -13 -40 -16 -56 -5 -14 11 -11 12 20 12 20 0 36
-4 36 -7z m55 -9 c3 -11 11 -20 16 -20 5 0 9 9 9 20 0 18 7 20 80 20 l80 0 0
-60 c0 -54 -2 -60 -21 -60 -16 0 -20 -5 -16 -20 3 -11 1 -18 -4 -14 -5 3 -9
13 -9 22 0 13 -2 14 -9 3 -7 -10 -13 -11 -27 -2 -11 6 -13 11 -6 11 6 0 12 8
12 19 0 21 -48 36 -64 20 -6 -6 -6 -9 2 -9 7 0 12 -5 12 -10 0 -6 -18 -1 -40
10 -22 11 -40 23 -40 26 0 3 5 2 10 -1 6 -3 10 -2 10 3 0 17 -13 22 -28 9 -13
-10 -14 -9 -7 2 6 11 4 13 -8 8 -9 -3 -19 -1 -23 5 -5 7 -3 8 5 4 8 -5 14 0
18 13 7 27 40 27 48 1z m1615 -35 c0 -2 -6 -5 -13 -8 -8 -3 -14 1 -14 8 0 7 6
11 14 8 7 -3 13 -6 13 -8z m-80 -41 c0 -8 -19 -13 -24 -6 -3 5 1 9 9 9 8 0 15
-2 15 -3z m-50 -28 c0 -2 -7 -7 -16 -10 -8 -3 -12 -2 -9 4 6 10 25 14 25 6z
m-1236 -42 c9 -3 16 -14 16 -23 -1 -14 -3 -13 -15 3 -8 11 -21 16 -30 13 -8
-4 -15 -2 -15 3 0 11 21 13 44 4z m1143 0 c-10 -10 -97 -12 -97 -2 0 4 23 8
52 8 28 0 48 -3 45 -6z m-1067 -44 c18 -12 2 -12 -25 0 -13 6 -15 9 -5 9 8 0
22 -4 30 -9z m890 -12 c0 -13 -23 -5 -28 10 -2 7 2 10 12 6 9 -3 16 -11 16
-16z m67 16 c-3 -3 -12 -4 -19 -1 -8 3 -5 6 6 6 11 1 17 -2 13 -5z m-783 -43
c4 -5 -3 -7 -14 -4 -23 6 -26 13 -6 13 8 0 17 -4 20 -9z m207 0 c-8 -5 20 -9
73 -10 53 -1 86 2 86 9 0 13 72 9 83 -5 4 -6 10 -6 15 2 4 7 36 11 85 11 43 0
76 -2 74 -4 -13 -13 -225 -34 -349 -34 -121 0 -148 3 -148 14 0 18 15 24 60
25 23 0 30 -2 21 -8z m-91 -17 c0 -2 -17 -4 -37 -3 -33 1 -35 2 -13 8 23 7 50
4 50 -5z"/>
<path d="M1691 2392 c-66 -36 -90 -125 -51 -189 35 -57 58 -63 263 -63 175 0
186 1 218 23 69 46 75 139 14 205 l-33 37 -189 3 c-168 2 -192 1 -222 -16z
m409 -8 c14 -9 17 -13 6 -10 -14 5 -17 2 -12 -9 3 -9 2 -13 -4 -10 -6 3 -10
12 -10 18 0 11 -55 12 -363 7 -10 0 -16 -4 -12 -9 3 -5 -5 -11 -17 -13 -13 -2
-22 -9 -20 -16 1 -8 -2 -10 -9 -7 -14 9 3 27 46 49 43 23 358 22 395 0z m54
-50 c5 -14 4 -15 -9 -4 -17 14 -19 20 -6 20 5 0 12 -7 15 -16z m-474 -36 c0
-15 -5 -19 -20 -15 -15 4 -20 0 -20 -16 0 -11 -3 -18 -6 -15 -3 3 -2 22 1 41
6 28 11 34 26 30 11 -3 19 -14 19 -25z m-10 -62 c0 -2 -7 -6 -15 -10 -8 -3
-15 -1 -15 4 0 6 7 10 15 10 8 0 15 -2 15 -4z m484 -4 c2 -4 0 -14 -6 -22 -8
-12 -9 -12 -5 2 3 9 1 19 -6 22 -9 3 -9 5 0 5 6 1 14 -3 17 -7z m-460 -49 c3
-7 15 -13 28 -13 21 0 21 0 2 15 -18 14 -18 14 9 15 24 0 28 -4 25 -22 -2 -19
-9 -23 -32 -21 -32 2 -80 40 -52 40 8 0 17 -6 20 -14z m435 4 c-2 -1 -13 -9
-24 -17 -19 -14 -19 -14 -6 3 7 9 18 17 24 17 6 0 8 -1 6 -3z m-56 -34 c-7 -2
-19 -2 -25 0 -7 3 -2 5 12 5 14 0 19 -2 13 -5z"/>
<path d="M1683 1820 c-60 -36 -79 -109 -46 -177 34 -72 39 -73 403 -73 305 0
327 1 357 20 64 39 83 128 40 191 -39 58 -42 59 -397 59 -305 0 -327 -1 -357
-20z m704 -9 c9 -11 20 -18 25 -15 4 3 8 0 8 -5 0 -6 -6 -11 -12 -12 -7 0 -3
-4 9 -9 22 -9 41 -65 30 -92 -3 -7 -6 1 -6 19 -1 28 -21 61 -21 34 0 -6 -4
-11 -10 -11 -5 0 -10 9 -10 20 0 13 -7 20 -20 20 -13 0 -20 7 -20 20 0 11 5
20 11 20 5 0 7 5 3 12 -6 9 -9 9 -12 0 -2 -7 -8 -12 -13 -12 -6 0 -7 4 -4 10
4 6 -106 8 -304 7 -170 -1 -307 1 -305 5 3 4 147 8 320 8 299 0 315 -1 331
-19z m-673 1 c2 -4 -4 -8 -14 -8 -10 0 -16 4 -14 8 3 4 9 8 14 8 5 0 11 -4 14
-8z m-34 -30 c0 -5 -9 -17 -20 -27 -23 -21 -26 -14 -8 15 13 20 28 27 28 12z
m-43 -94 c-3 -7 -5 -2 -5 12 0 14 2 19 5 13 2 -7 2 -19 0 -25z m28 -56 c-3 -3
-11 0 -18 7 -9 10 -8 11 6 5 10 -3 15 -9 12 -12z m760 -2 c-3 -5 -12 -10 -18
-10 -7 0 -6 4 3 10 19 12 23 12 15 0z m-713 -21 c15 -8 122 -11 347 -11 211 1
321 -2 311 -8 -22 -14 -650 -13 -650 1 0 5 -4 7 -10 4 -5 -3 -10 -1 -10 5 0 6
-4 9 -9 5 -5 -3 -12 -1 -16 5 -8 13 11 13 37 -1z"/>
<path d="M1290 2659 c0 -5 5 -7 10 -4 6 3 10 8 10 11 0 2 -4 4 -10 4 -5 0 -10
-5 -10 -11z"/>
<path d="M3620 2271 c0 -6 4 -12 8 -15 5 -3 9 1 9 9 0 8 -4 15 -9 15 -4 0 -8
-4 -8 -9z"/>
<path d="M2655 2240 c-3 -5 -1 -10 4 -10 6 0 11 5 11 10 0 6 -2 10 -4 10 -3 0
-8 -4 -11 -10z"/>
<path d="M2844 1408 l-19 -23 23 19 c21 18 27 26 19 26 -2 0 -12 -10 -23 -22z"/>
<path d="M2248 383 c6 -2 18 -2 25 0 6 3 1 5 -13 5 -14 0 -19 -2 -12 -5z"/>
<path d="M2850 330 c0 -5 5 -10 11 -10 5 0 7 5 4 10 -3 6 -8 10 -11 10 -2 0
-4 -4 -4 -10z"/>
<path d="M1344 294 c12 -37 28 -44 102 -44 27 0 54 -4 60 -9 10 -11 100 -18
109 -9 8 7 -73 23 -99 19 -10 -1 -16 1 -13 6 3 4 -34 22 -82 39 l-87 30 10
-32z"/>
<path d="M2728 322 c-19 -4 -24 -17 -9 -26 5 -3 14 1 21 9 15 18 12 23 -12 17z"/>
<path d="M2595 273 c-61 -21 -85 -32 -60 -29 22 3 66 6 97 6 48 0 59 3 69 21
6 12 7 25 2 29 -4 4 -53 -8 -108 -27z"/>
</g>
</svg>
